# xmcd
#
# Track frame offsets:
#       150
#       8441
#       17772
#       31847
#       42756
#       49525
#       55628
#       67697
#       76973
#       81401
#       92628
#       101866
#       116464
#       125941
#       137497
#       144284
#       152793
#
# Disc length: 2127 seconds
#
# Revision: 0
# Processed by: cddbd v1.4PL0 Copyright (c) Steve Scherf et al.
# Submitted via: CD-DA_X-Tractor v0.21
#
DISCID=cb084d11
DTITLE=Four Fathers - Barbershop Style
DYEAR=1900
DGENRE=
TTITLE0=Give Me That Barbershop Style
TTITLE1=Toot, Toot, Tootsie
TTITLE2=Workin' on The Railroad
TTITLE3=Ramona
TTITLE4=Girls of my dreams
TTITLE5=K-K-K-Kathy
TTITLE6=Peg O'My Heart
TTITLE7=Bye bye Blues
TTITLE8=Horses
TTITLE9=Old Fashioned Love
TTITLE10=Good Night
TTITLE11=My Old Man
TTITLE12=Down Mobile - Bring the Wagon
TTITLE13=Aura Lee - Love Me Tender
TTITLE14=Jingle Bells
TTITLE15=Bright was the Night
TTITLE16=Happy New Year (Have a Happy day)
EXTD=
EXTT0=
EXTT1=
EXTT2=
EXTT3=
EXTT4=
EXTT5=
EXTT6=
EXTT7=
EXTT8=
EXTT9=
EXTT10=
EXTT11=
EXTT12=
EXTT13=
EXTT14=
EXTT15=
EXTT16=
PLAYORDER=
